<mxfile host="65bd71144e">
    <diagram id="2NeK02KSHm6UYks1_RoH" name="Page-1">
        <mxGraphModel dx="1315" dy="634" grid="1" gridSize="10" guides="1" tooltips="1" connect="1" arrows="1" fold="1" page="1" pageScale="1" pageWidth="850" pageHeight="1100" math="0" shadow="0">
            <root>
                <mxCell id="0"/>
                <mxCell id="1" parent="0"/>
                <mxCell id="2" value="" style="ellipse;whiteSpace=wrap;html=1;aspect=fixed;fillColor=#647687;fontColor=#ffffff;strokeColor=#000000;" parent="1" vertex="1">
                    <mxGeometry x="130" y="360" width="50" height="50" as="geometry"/>
                </mxCell>
                <mxCell id="3" value="" style="ellipse;whiteSpace=wrap;html=1;aspect=fixed;fillColor=#647687;fontColor=#ffffff;strokeColor=#000000;" parent="1" vertex="1">
                    <mxGeometry x="270" y="360" width="50" height="50" as="geometry"/>
                </mxCell>
                <mxCell id="4" value="" style="ellipse;whiteSpace=wrap;html=1;aspect=fixed;fillColor=#647687;fontColor=#ffffff;strokeColor=#000000;" parent="1" vertex="1">
                    <mxGeometry x="410" y="360" width="50" height="50" as="geometry"/>
                </mxCell>
                <mxCell id="5" value="" style="ellipse;whiteSpace=wrap;html=1;aspect=fixed;fontColor=#ffffff;strokeColor=#000000;fillColor=#A0522D;" parent="1" vertex="1">
                    <mxGeometry x="410" y="460" width="50" height="50" as="geometry"/>
                </mxCell>
                <mxCell id="6" value="" style="endArrow=none;html=1;exitX=1;exitY=0.5;exitDx=0;exitDy=0;entryX=0;entryY=0.5;entryDx=0;entryDy=0;strokeColor=#999999;strokeWidth=2;" parent="1" source="2" target="3" edge="1">
                    <mxGeometry width="50" height="50" relative="1" as="geometry">
                        <mxPoint x="310" y="490" as="sourcePoint"/>
                        <mxPoint x="260" y="385" as="targetPoint"/>
                    </mxGeometry>
                </mxCell>
                <mxCell id="7" value="" style="endArrow=none;html=1;entryX=0;entryY=0.5;entryDx=0;entryDy=0;exitX=1;exitY=0.5;exitDx=0;exitDy=0;strokeColor=#999999;strokeWidth=2;" parent="1" source="3" target="4" edge="1">
                    <mxGeometry width="50" height="50" relative="1" as="geometry">
                        <mxPoint x="230" y="490" as="sourcePoint"/>
                        <mxPoint x="280" y="440" as="targetPoint"/>
                    </mxGeometry>
                </mxCell>
                <mxCell id="8" value="" style="endArrow=none;html=1;exitX=1;exitY=0.5;exitDx=0;exitDy=0;strokeWidth=2;entryX=0;entryY=0.5;entryDx=0;entryDy=0;strokeColor=#999999;" parent="1" source="3" target="5" edge="1">
                    <mxGeometry width="50" height="50" relative="1" as="geometry">
                        <mxPoint x="310" y="440" as="sourcePoint"/>
                        <mxPoint x="410" y="480" as="targetPoint"/>
                    </mxGeometry>
                </mxCell>
                <mxCell id="23" value="main" style="rounded=1;whiteSpace=wrap;html=1;fillColor=#76608a;strokeColor=#432D57;fontColor=#ffffff;fontSize=20;arcSize=0;" vertex="1" parent="1">
                    <mxGeometry x="392.5" y="250" width="85" height="30" as="geometry"/>
                </mxCell>
                <mxCell id="24" value="" style="endArrow=classic;html=1;fontSize=20;exitX=0.5;exitY=1;exitDx=0;exitDy=0;entryX=0.5;entryY=0;entryDx=0;entryDy=0;strokeColor=#999999;" edge="1" parent="1" source="23" target="4">
                    <mxGeometry width="50" height="50" relative="1" as="geometry">
                        <mxPoint x="400" y="350" as="sourcePoint"/>
                        <mxPoint x="450" y="300" as="targetPoint"/>
                    </mxGeometry>
                </mxCell>
                <mxCell id="25" value="dev" style="rounded=1;whiteSpace=wrap;html=1;fillColor=#6d8764;strokeColor=#3A5431;fontColor=#ffffff;fontSize=20;arcSize=0;" vertex="1" parent="1">
                    <mxGeometry x="392.5" y="600" width="85" height="30" as="geometry"/>
                </mxCell>
                <mxCell id="26" value="" style="endArrow=classic;html=1;fontSize=20;exitX=0.5;exitY=0;exitDx=0;exitDy=0;entryX=0.5;entryY=1;entryDx=0;entryDy=0;strokeColor=#999999;" edge="1" parent="1" source="25" target="5">
                    <mxGeometry width="50" height="50" relative="1" as="geometry">
                        <mxPoint x="500" y="500" as="sourcePoint"/>
                        <mxPoint x="500" y="580" as="targetPoint"/>
                    </mxGeometry>
                </mxCell>
                <mxCell id="27" value="HEAD" style="rounded=0;whiteSpace=wrap;html=1;fontSize=20;" vertex="1" parent="1">
                    <mxGeometry x="220" y="592.5" width="80" height="45" as="geometry"/>
                </mxCell>
                <mxCell id="28" value="" style="shape=flexArrow;endArrow=classic;html=1;fontSize=20;" edge="1" parent="1">
                    <mxGeometry width="50" height="50" relative="1" as="geometry">
                        <mxPoint x="320" y="614.5" as="sourcePoint"/>
                        <mxPoint x="380" y="614.5" as="targetPoint"/>
                    </mxGeometry>
                </mxCell>
            </root>
        </mxGraphModel>
    </diagram>
</mxfile>